{
	"asset":{
		"version":"2.0",
		"generator":"Created using the official Cinema 4D glTF Exporter 1.000x290161"
	},
	"scenes":[{
		"nodes":[0]
	}],
	"nodes":[{
		"name":"Null.1",
		"translation":[-0.835425078868866,
		1.6866257190704346,
		-0.8716992139816284],
		"rotation":[0.0,
		0.0,
		0.0,
		-1.0],
		"scale":[1.0,
		1.0,
		1.0],
		"mesh":0
	}],
	"meshes":[{
		"primitives":[{
			"attributes":{
				"POSITION":1,
				"NORMAL":2
			},
			"indices":0,
			"material":0
		}]
	}],
	"accessors":[{
		"bufferView":0,
		"type":"SCALAR",
		"componentType":5123,
		"count":53157,
		"byteOffset":0,
		"min":[0],
		"max":[19520]
	},
	{
		"bufferView":1,
		"type":"VEC3",
		"componentType":5126,
		"count":19521,
		"byteOffset":0,
		"min":[-2.7541110515594484,
		-2.6861960887908937,
		-3.149123191833496],
		"max":[2.7773678302764894,
		2.6018288135528566,
		3.318260431289673]
	},
	{
		"bufferView":1,
		"type":"VEC3",
		"componentType":5126,
		"count":19521,
		"byteOffset":12,
		"min":[-0.9997321367263794,
		-0.9995359778404236,
		-0.9999995827674866],
		"max":[0.9998944401741028,
		0.9995460510253906,
		0.9999749064445496]
	}],
	"bufferViews":[{
		"buffer":0,
		"byteOffset":0,
		"byteLength":106314,
		"target":34963
	},
	{
		"buffer":0,
		"byteOffset":106316,
		"byteLength":468504,
		"target":34962,
		"byteStride":24
	}],
	"buffers":[{
		"uri":"data:application/octet-stream;base64,",
		"byteLength":574820
	}],
	"materials":[{
		"pbrMetallicRoughness":{
			"baseColorFactor":[1.0,
			1.0,
			1.0,
			1.0],
			"metallicFactor":1.0,
			"roughnessFactor":1.0
		},
		"emissiveFactor":[0.0,
		0.0,
		0.0],
		"alphaMode":"OPAQUE",
		"doubleSided":false,
		"name":""
	}]
}