{
	"asset":{
		"version":"2.0",
		"generator":"Created using the official Cinema 4D glTF Exporter 1.000x290161"
	},
	"scenes":[{
		"nodes":[0]
	}],
	"nodes":[{
		"name":"knots",
		"translation":[0.0,
		0.0,
		0.0],
		"rotation":[0.5,
		0.5,
		0.5,
		-0.5],
		"scale":[1.0,
		1.0,
		1.0],
		"mesh":0
	}],
	"meshes":[{
		"primitives":[{
			"attributes":{
				"POSITION":1,
				"NORMAL":2
			},
			"indices":0,
			"material":0
		}]
	}],
	"accessors":[{
		"bufferView":0,
		"type":"SCALAR",
		"componentType":5123,
		"count":36510,
		"byteOffset":0,
		"min":[0],
		"max":[9544]
	},
	{
		"bufferView":1,
		"type":"VEC3",
		"componentType":5126,
		"count":9545,
		"byteOffset":0,
		"min":[-3.932680606842041,
		-0.3195379972457886,
		-2.175961494445801],
		"max":[3.932680606842041,
		0.3195379972457886,
		2.175961494445801]
	},
	{
		"bufferView":1,
		"type":"VEC3",
		"componentType":5126,
		"count":9545,
		"byteOffset":12,
		"min":[-1.0,
		-0.9999483823776245,
		-0.9999797940254211],
		"max":[1.0,
		1.0,
		0.9999996423721314]
	}],
	"bufferViews":[{
		"buffer":0,
		"byteOffset":0,
		"byteLength":73020,
		"target":34963
	},
	{
		"buffer":0,
		"byteOffset":73020,
		"byteLength":229080,
		"target":34962,
		"byteStride":24
	}],
	"buffers":[{
		"uri":"data:application/octet-stream;base64,",
		"byteLength":302100
	}],
	"materials":[{
		"name":"Default",
		"pbrMetallicRoughness":{
			"baseColorFactor":[1.0,
			1.0,
			1.0,
			1.0],
			"metallicFactor":1.0,
			"roughnessFactor":1.0
		},
		"emissiveFactor":[0.0,
		0.0,
		0.0],
		"alphaMode":"OPAQUE",
		"doubleSided":false
	}]
}