{
	"asset":{
		"version":"2.0",
		"generator":"Created using the official Cinema 4D glTF Exporter 1.000x290161"
	},
	"scenes":[{
		"nodes":[0]
	}],
	"nodes":[{
		"name":"Screw_Gear_Wheel_02 0.1",
		"translation":[0.3853725790977478,
		-0.8144792914390564,
		0.1333438605070114],
		"rotation":[0.0,
		0.0,
		0.0,
		-1.0],
		"scale":[1.0,
		1.0,
		1.0],
		"mesh":0
	}],
	"meshes":[{
		"primitives":[{
			"attributes":{
				"POSITION":1,
				"NORMAL":2
			},
			"indices":0,
			"material":0
		}]
	}],
	"accessors":[{
		"bufferView":0,
		"type":"SCALAR",
		"componentType":5123,
		"count":107712,
		"byteOffset":0,
		"min":[0],
		"max":[44205]
	},
	{
		"bufferView":1,
		"type":"VEC3",
		"componentType":5126,
		"count":44206,
		"byteOffset":0,
		"min":[-2.185127019882202,
		-2.0636444091796877,
		-1.792030692100525],
		"max":[2.185127019882202,
		2.0636444091796877,
		1.792030692100525]
	},
	{
		"bufferView":1,
		"type":"VEC3",
		"componentType":5126,
		"count":44206,
		"byteOffset":12,
		"min":[-0.9999663233757019,
		-0.9998412728309631,
		-0.9999646544456482],
		"max":[0.9997990727424622,
		0.9999303221702576,
		0.9999344944953919]
	}],
	"bufferViews":[{
		"buffer":0,
		"byteOffset":0,
		"byteLength":215424,
		"target":34963
	},
	{
		"buffer":0,
		"byteOffset":215424,
		"byteLength":1060944,
		"target":34962,
		"byteStride":24
	}],
	"buffers":[{
		"uri":"data:application/octet-stream;base64,",
		"byteLength":1276368
	}],
	"materials":[{
		"pbrMetallicRoughness":{
			"baseColorFactor":[1.0,
			1.0,
			1.0,
			1.0],
			"metallicFactor":1.0,
			"roughnessFactor":1.0
		},
		"emissiveFactor":[0.0,
		0.0,
		0.0],
		"alphaMode":"OPAQUE",
		"doubleSided":false,
		"name":""
	}]
}