{
	"asset":{
		"version":"2.0",
		"generator":"Created using the official Cinema 4D glTF Exporter 1.000x290161"
	},
	"scenes":[{
		"nodes":[0]
	}],
	"nodes":[{
		"name":"Carcinoplax_Suruguensis.4",
		"mesh":0
	}],
	"meshes":[{
		"primitives":[{
			"attributes":{
				"POSITION":1,
				"NORMAL":2
			},
			"indices":0,
			"material":0
		}]
	}],
	"accessors":[{
		"bufferView":0,
		"type":"SCALAR",
		"componentType":5123,
		"count":39120,
		"byteOffset":0,
		"min":[0],
		"max":[17950]
	},
	{
		"bufferView":1,
		"type":"VEC3",
		"componentType":5126,
		"count":17951,
		"byteOffset":0,
		"min":[-1.2783091068267823,
		-0.8877678513526917,
		-4.442507266998291],
		"max":[0.9204137921333313,
		5.090122699737549,
		4.555591583251953]
	},
	{
		"bufferView":1,
		"type":"VEC3",
		"componentType":5126,
		"count":17951,
		"byteOffset":12,
		"min":[-0.9998797178268433,
		-0.999849796295166,
		-0.9993829131126404],
		"max":[0.9999141097068787,
		0.9999472498893738,
		0.9994122385978699]
	}],
	"bufferViews":[{
		"buffer":0,
		"byteOffset":0,
		"byteLength":78240,
		"target":34963
	},
	{
		"buffer":0,
		"byteOffset":78240,
		"byteLength":430824,
		"target":34962,
		"byteStride":24
	}],
	"buffers":[{
		"uri":"data:application/octet-stream;base64,",
		"byteLength":509064
	}],
	"materials":[{
		"pbrMetallicRoughness":{
			"baseColorFactor":[1.0,
			1.0,
			1.0,
			1.0],
			"metallicFactor":1.0,
			"roughnessFactor":1.0
		},
		"emissiveFactor":[0.0,
		0.0,
		0.0],
		"alphaMode":"OPAQUE",
		"doubleSided":false,
		"name":"Default"
	}]
}