{
	"asset":{
		"version":"2.0",
		"generator":"Created using the official Cinema 4D glTF Exporter 1.000x290161"
	},
	"scenes":[{
		"nodes":[0]
	}],
	"nodes":[{
		"name":"noisy.plane.2",
		"mesh":0
	}],
	"meshes":[{
		"primitives":[{
			"attributes":{
				"POSITION":1,
				"NORMAL":2
			},
			"indices":0,
			"material":0
		}]
	}],
	"accessors":[{
		"bufferView":0,
		"type":"SCALAR",
		"componentType":5123,
		"count":5400,
		"byteOffset":0,
		"min":[0],
		"max":[2584]
	},
	{
		"bufferView":1,
		"type":"VEC3",
		"componentType":5126,
		"count":2585,
		"byteOffset":0,
		"min":[-0.10728000104427338,
		-2.1456003189086916,
		-2.1456000804901125],
		"max":[0.10728000104427338,
		2.1456000804901125,
		2.1456003189086916]
	},
	{
		"bufferView":1,
		"type":"VEC3",
		"componentType":5126,
		"count":2585,
		"byteOffset":12,
		"min":[0.42640137672424319,
		-0.8320505023002625,
		-0.8320505023002625],
		"max":[1.0,
		0.8320505023002625,
		0.8320505023002625]
	}],
	"bufferViews":[{
		"buffer":0,
		"byteOffset":0,
		"byteLength":10800,
		"target":34963
	},
	{
		"buffer":0,
		"byteOffset":10800,
		"byteLength":62040,
		"target":34962,
		"byteStride":24
	}],
	"buffers":[{
		"uri":"data:application/octet-stream;base64,",
		"byteLength":72840
	}],
	"materials":[{
		"pbrMetallicRoughness":{
			"baseColorFactor":[1.0,
			1.0,
			1.0,
			1.0],
			"metallicFactor":1.0,
			"roughnessFactor":1.0
		},
		"emissiveFactor":[0.0,
		0.0,
		0.0],
		"alphaMode":"OPAQUE",
		"doubleSided":false,
		"name":"Default"
	}]
}