{
	"asset":{
		"version":"2.0",
		"generator":"Created using the official Cinema 4D glTF Exporter 1.000x290161"
	},
	"scenes":[{
		"nodes":[0]
	}],
	"nodes":[{
		"name":"noisy.plane",
		"translation":[0.0,
		0.0,
		0.0],
		"rotation":[0.14454396069049836,
		0.3971312642097473,
		-0.3099755048751831,
		0.8516507148742676],
		"scale":[1.0,
		1.0,
		1.0],
		"mesh":0
	}],
	"meshes":[{
		"primitives":[{
			"attributes":{
				"POSITION":1,
				"NORMAL":2
			},
			"indices":0,
			"material":0
		}]
	}],
	"accessors":[{
		"bufferView":0,
		"type":"SCALAR",
		"componentType":5123,
		"count":21600,
		"byteOffset":0,
		"min":[0],
		"max":[7022]
	},
	{
		"bufferView":1,
		"type":"VEC3",
		"componentType":5126,
		"count":7023,
		"byteOffset":0,
		"min":[-2.7720000743865969,
		-0.13860000669956208,
		-2.7720000743865969],
		"max":[2.772000312805176,
		0.13860000669956208,
		2.772000312805176]
	},
	{
		"bufferView":1,
		"type":"VEC3",
		"componentType":5126,
		"count":7023,
		"byteOffset":12,
		"min":[-0.948683500289917,
		0.22941534221172334,
		-0.948683500289917],
		"max":[0.9486835598945618,
		1.0,
		0.9486835598945618]
	}],
	"bufferViews":[{
		"buffer":0,
		"byteOffset":0,
		"byteLength":43200,
		"target":34963
	},
	{
		"buffer":0,
		"byteOffset":43200,
		"byteLength":168552,
		"target":34962,
		"byteStride":24
	}],
	"buffers":[{
		"uri":"data:application/octet-stream;base64,",
		"byteLength":211752
	}],
	"materials":[{
		"pbrMetallicRoughness":{
			"baseColorFactor":[1.0,
			1.0,
			1.0,
			1.0],
			"metallicFactor":1.0,
			"roughnessFactor":1.0
		},
		"emissiveFactor":[0.0,
		0.0,
		0.0],
		"alphaMode":"OPAQUE",
		"doubleSided":false,
		"name":"Default"
	}]
}