{
	"asset":{
		"version":"2.0",
		"generator":"Created using the official Cinema 4D glTF Exporter 1.000x290161"
	},
	"scenes":[{
		"nodes":[0]
	}],
	"nodes":[{
		"name":"Spiral",
		"mesh":0
	}],
	"meshes":[{
		"primitives":[{
			"attributes":{
				"POSITION":1,
				"NORMAL":2
			},
			"indices":0,
			"material":0
		}]
	}],
	"accessors":[{
		"bufferView":0,
		"type":"SCALAR",
		"componentType":5123,
		"count":30492,
		"byteOffset":0,
		"min":[0],
		"max":[20327]
	},
	{
		"bufferView":1,
		"type":"VEC3",
		"componentType":5126,
		"count":20328,
		"byteOffset":0,
		"min":[-2.211294651031494,
		-2.891949415206909,
		-2.214319944381714],
		"max":[2.211294651031494,
		2.891949415206909,
		2.214319944381714]
	},
	{
		"bufferView":1,
		"type":"VEC3",
		"componentType":5126,
		"count":20328,
		"byteOffset":12,
		"min":[-0.9998694658279419,
		-0.9999937415122986,
		-0.9998993873596191],
		"max":[0.9999412894248962,
		0.9999937415122986,
		0.9999848008155823]
	}],
	"bufferViews":[{
		"buffer":0,
		"byteOffset":0,
		"byteLength":60984,
		"target":34963
	},
	{
		"buffer":0,
		"byteOffset":60984,
		"byteLength":487872,
		"target":34962,
		"byteStride":24
	}],
	"buffers":[{
		"uri":"data:application/octet-stream;base64,",
		"byteLength":548856
	}],
	"materials":[{
		"pbrMetallicRoughness":{
			"baseColorFactor":[1.0,
			1.0,
			1.0,
			1.0],
			"metallicFactor":1.0,
			"roughnessFactor":1.0
		},
		"emissiveFactor":[0.0,
		0.0,
		0.0],
		"alphaMode":"OPAQUE",
		"doubleSided":false,
		"name":"Default"
	}]
}