{
	"asset":{
		"version":"2.0",
		"generator":"Created using the official Cinema 4D glTF Exporter 1.000x290161"
	},
	"scenes":[{
		"nodes":[0]
	}],
	"nodes":[{
		"name":"Toilet",
		"mesh":0
	}],
	"meshes":[{
		"primitives":[{
			"attributes":{
				"POSITION":1,
				"NORMAL":2
			},
			"indices":0,
			"material":0
		}]
	}],
	"accessors":[{
		"bufferView":0,
		"type":"SCALAR",
		"componentType":5123,
		"count":45288,
		"byteOffset":0,
		"min":[0],
		"max":[12614]
	},
	{
		"bufferView":1,
		"type":"VEC3",
		"componentType":5126,
		"count":12615,
		"byteOffset":0,
		"min":[-2.0513508319854738,
		-2.361206531524658,
		-1.449351191520691],
		"max":[2.0513508319854738,
		2.361206531524658,
		1.449351191520691]
	},
	{
		"bufferView":1,
		"type":"VEC3",
		"componentType":5126,
		"count":12615,
		"byteOffset":12,
		"min":[-1.0,
		-1.0,
		-1.0],
		"max":[1.0,
		1.0,
		1.0]
	}],
	"bufferViews":[{
		"buffer":0,
		"byteOffset":0,
		"byteLength":90576,
		"target":34963
	},
	{
		"buffer":0,
		"byteOffset":90576,
		"byteLength":302760,
		"target":34962,
		"byteStride":24
	}],
	"buffers":[{
		"uri":"data:application/octet-stream;base64,",
		"byteLength":393336
	}],
	"materials":[{
		"name":"Default",
		"pbrMetallicRoughness":{
			"baseColorFactor":[1.0,
			1.0,
			1.0,
			1.0],
			"metallicFactor":1.0,
			"roughnessFactor":1.0
		},
		"emissiveFactor":[0.0,
		0.0,
		0.0],
		"alphaMode":"OPAQUE",
		"doubleSided":false
	}]
}