{
	"asset":{
		"version":"2.0",
		"generator":"Created using the official Cinema 4D glTF Exporter 1.000x290161"
	},
	"scenes":[{
		"nodes":[0]
	}],
	"nodes":[{
		"name":"Tube",
		"mesh":0
	}],
	"meshes":[{
		"primitives":[{
			"attributes":{
				"POSITION":1
			},
			"indices":0,
			"material":0
		}]
	}],
	"accessors":[{
		"bufferView":0,
		"type":"SCALAR",
		"componentType":5123,
		"count":15120,
		"byteOffset":0,
		"min":[0],
		"max":[2663]
	},
	{
		"bufferView":1,
		"type":"VEC3",
		"componentType":5126,
		"count":2664,
		"byteOffset":0,
		"min":[-8.198249816894532,
		-13.994951248168946,
		-8.115222930908204],
		"max":[8.023598670959473,
		13.994951248168946,
		8.44959545135498]
	}],
	"bufferViews":[{
		"buffer":0,
		"byteOffset":0,
		"byteLength":30240,
		"target":34963
	},
	{
		"buffer":0,
		"byteOffset":30240,
		"byteLength":31968,
		"target":34962
	}],
	"buffers":[{
		"uri":"data:application/octet-stream;base64,",
		"byteLength":62208
	}],
	"materials":[{
		"pbrMetallicRoughness":{
			"baseColorFactor":[1.0,
			1.0,
			1.0,
			1.0],
			"metallicFactor":1.0,
			"roughnessFactor":1.0
		},
		"emissiveFactor":[0.0,
		0.0,
		0.0],
		"alphaMode":"OPAQUE",
		"doubleSided":false,
		"name":""
	}]
}