{
	"asset":{
		"version":"2.0",
		"generator":"Created using the official Cinema 4D glTF Exporter 1.000x290161"
	},
	"scenes":[{
		"nodes":[0]
	}],
	"nodes":[{
		"name":"coral",
		"mesh":0
	}],
	"meshes":[{
		"primitives":[{
			"attributes":{
				"POSITION":1,
				"NORMAL":2
			},
			"indices":0,
			"material":0
		}]
	}],
	"accessors":[{
		"bufferView":0,
		"type":"SCALAR",
		"componentType":5123,
		"count":12798,
		"byteOffset":0,
		"min":[0],
		"max":[10740]
	},
	{
		"bufferView":1,
		"type":"VEC3",
		"componentType":5126,
		"count":10741,
		"byteOffset":0,
		"min":[-1.592498779296875,
		-1.2853569984436036,
		-1.182878017425537],
		"max":[1.593411922454834,
		1.2737147808074952,
		1.1771361827850342]
	},
	{
		"bufferView":1,
		"type":"VEC3",
		"componentType":5126,
		"count":10741,
		"byteOffset":12,
		"min":[-0.9992299675941467,
		-0.9999997019767761,
		-0.9998911619186401],
		"max":[0.9998460412025452,
		0.9995908141136169,
		0.9999575018882752]
	}],
	"bufferViews":[{
		"buffer":0,
		"byteOffset":0,
		"byteLength":25596,
		"target":34963
	},
	{
		"buffer":0,
		"byteOffset":25596,
		"byteLength":257784,
		"target":34962,
		"byteStride":24
	}],
	"buffers":[{
		"uri":"data:application/octet-stream;base64,",
		"byteLength":283380
	}],
	"materials":[{
		"pbrMetallicRoughness":{
			"baseColorFactor":[1.0,
			1.0,
			1.0,
			1.0],
			"metallicFactor":1.0,
			"roughnessFactor":1.0
		},
		"emissiveFactor":[0.0,
		0.0,
		0.0],
		"alphaMode":"OPAQUE",
		"doubleSided":false,
		"name":"Default"
	}]
}