{
	"asset":{
		"version":"2.0",
		"generator":"Created using the official Cinema 4D glTF Exporter 1.000x290161"
	},
	"scenes":[{
		"nodes":[0]
	}],
	"nodes":[{
		"name":"Blume",
		"translation":[0.017697500064969064,
		0.11787399649620056,
		0.008464000187814236],
		"rotation":[0.0,
		0.0,
		0.0,
		-1.0],
		"scale":[1.0,
		1.0,
		1.0],
		"mesh":0
	}],
	"meshes":[{
		"primitives":[{
			"attributes":{
				"POSITION":1,
				"NORMAL":2
			},
			"indices":0,
			"material":0
		}]
	}],
	"accessors":[{
		"bufferView":0,
		"type":"SCALAR",
		"componentType":5123,
		"count":6852,
		"byteOffset":0,
		"min":[0],
		"max":[2514]
	},
	{
		"bufferView":1,
		"type":"VEC3",
		"componentType":5126,
		"count":2515,
		"byteOffset":0,
		"min":[-2.288470983505249,
		-2.039039373397827,
		-2.3202271461486818],
		"max":[2.288470983505249,
		2.039039373397827,
		2.3202271461486818]
	},
	{
		"bufferView":1,
		"type":"VEC3",
		"componentType":5126,
		"count":2515,
		"byteOffset":12,
		"min":[-0.9987565875053406,
		-0.500817596912384,
		-0.9975266456604004],
		"max":[0.9960076808929443,
		0.9996771812438965,
		0.9999566674232483]
	}],
	"bufferViews":[{
		"buffer":0,
		"byteOffset":0,
		"byteLength":13704,
		"target":34963
	},
	{
		"buffer":0,
		"byteOffset":13704,
		"byteLength":60360,
		"target":34962,
		"byteStride":24
	}],
	"buffers":[{
		"uri":"data:application/octet-stream;base64,",
		"byteLength":74064
	}],
	"materials":[{
		"name":"Default",
		"pbrMetallicRoughness":{
			"baseColorFactor":[1.0,
			1.0,
			1.0,
			1.0],
			"metallicFactor":1.0,
			"roughnessFactor":1.0
		},
		"emissiveFactor":[0.0,
		0.0,
		0.0],
		"alphaMode":"OPAQUE",
		"doubleSided":false
	}]
}