{
	"asset":{
		"version":"2.0",
		"generator":"Created using the official Cinema 4D glTF Exporter 1.000x290161"
	},
	"scenes":[{
		"nodes":[0]
	}],
	"nodes":[{
		"name":"Mustang",
		"translation":[0.0,
		0.0,
		0.0],
		"rotation":[0.0,
		0.7071067690849304,
		0.0,
		-0.7071067690849304],
		"scale":[1.0,
		1.0,
		1.0],
		"mesh":0
	}],
	"meshes":[{
		"primitives":[{
			"attributes":{
				"POSITION":1,
				"NORMAL":2
			},
			"indices":0,
			"material":0
		}]
	}],
	"accessors":[{
		"bufferView":0,
		"type":"SCALAR",
		"componentType":5123,
		"count":39354,
		"byteOffset":0,
		"min":[0],
		"max":[12580]
	},
	{
		"bufferView":1,
		"type":"VEC3",
		"componentType":5126,
		"count":12581,
		"byteOffset":0,
		"min":[-1.427217721939087,
		-1.0857902765274048,
		-3.685121536254883],
		"max":[1.427217721939087,
		1.0857902765274048,
		3.685121536254883]
	},
	{
		"bufferView":1,
		"type":"VEC3",
		"componentType":5126,
		"count":12581,
		"byteOffset":12,
		"min":[-1.0,
		-1.0,
		-1.0],
		"max":[1.0,
		1.0,
		1.0]
	}],
	"bufferViews":[{
		"buffer":0,
		"byteOffset":0,
		"byteLength":78708,
		"target":34963
	},
	{
		"buffer":0,
		"byteOffset":78708,
		"byteLength":301944,
		"target":34962,
		"byteStride":24
	}],
	"buffers":[{
		"uri":"data:application/octet-stream;base64,",
		"byteLength":380652
	}],
	"materials":[{
		"name":"Default",
		"pbrMetallicRoughness":{
			"baseColorFactor":[1.0,
			1.0,
			1.0,
			1.0],
			"metallicFactor":1.0,
			"roughnessFactor":1.0
		},
		"emissiveFactor":[0.0,
		0.0,
		0.0],
		"alphaMode":"OPAQUE",
		"doubleSided":false
	}]
}