{
    "asset": {
        "version": "2.0",
        "generator": "Created using the official Cinema 4D glTF Exporter 1.000x290161"
    },
    "scenes": [
        {
            "nodes": [0]
        }
    ],
    "nodes": [
        {
            "name": "Hunter.2",
            "translation": [
                -4.933577060699463,
                19.883344650268556,
                11.182351112365723
            ],
            "rotation": [0.0, 0.0, 0.0, -1.0],
            "scale": [1.0, 1.0, 1.0],
            "mesh": 0
        }
    ],
    "meshes": [
        {
            "primitives": [
                {
                    "attributes": {
                        "POSITION": 1,
                        "NORMAL": 2
                    },
                    "indices": 0,
                    "material": 0
                }
            ]
        }
    ],
    "accessors": [
        {
            "bufferView": 0,
            "type": "SCALAR",
            "componentType": 5125,
            "count": 201294,
            "byteOffset": 0,
            "min": [0],
            "max": [90474]
        },
        {
            "bufferView": 1,
            "type": "VEC3",
            "componentType": 5126,
            "count": 90475,
            "byteOffset": 0,
            "min": [-34.2541618347168, -32.52802276611328, -37.553409576416019],
            "max": [34.2541618347168, 32.52802276611328, 37.553409576416019]
        },
        {
            "bufferView": 1,
            "type": "VEC3",
            "componentType": 5126,
            "count": 90475,
            "byteOffset": 12,
            "min": [
                -0.9999127388000488,
                -0.9995555281639099,
                -0.9998778104782105
            ],
            "max": [0.999982476234436, 0.9997268915176392, 0.9999792575836182]
        }
    ],
    "bufferViews": [
        {
            "buffer": 0,
            "byteOffset": 0,
            "byteLength": 805176,
            "target": 34963
        },
        {
            "buffer": 0,
            "byteOffset": 805176,
            "byteLength": 2171400,
            "target": 34962,
            "byteStride": 24
        }
    ],
    "buffers": [
        {
            "uri": "data:application/octet-stream;base64,",
            "byteLength": 2976576
        }
    ],
    "materials": [
        {
            "pbrMetallicRoughness": {
                "baseColorFactor": [1.0, 1.0, 1.0, 1.0],
                "metallicFactor": 0.0,
                "roughnessFactor": 0.3
            },
            "emissiveFactor": [0.0, 0.0, 0.0],
            "alphaMode": "OPAQUE",
            "doubleSided": false,
            "name": "Mat.1"
        }
    ]
}
