{
	"asset":{
		"version":"2.0",
		"generator":"Created using the official Cinema 4D glTF Exporter 1.000x290161"
	},
	"scenes":[{
		"nodes":[0]
	}],
	"nodes":[{
		"name":"Pyramids.2",
		"mesh":0
	}],
	"meshes":[{
		"primitives":[{
			"attributes":{
				"POSITION":1,
				"NORMAL":2
			},
			"indices":0,
			"material":0
		}]
	}],
	"accessors":[{
		"bufferView":0,
		"type":"SCALAR",
		"componentType":5123,
		"count":1944,
		"byteOffset":0,
		"min":[0],
		"max":[1557]
	},
	{
		"bufferView":1,
		"type":"VEC3",
		"componentType":5126,
		"count":1558,
		"byteOffset":0,
		"min":[-3.250316858291626,
		-2.7977771759033205,
		-3.1824469566345217],
		"max":[3.250316858291626,
		2.7977771759033205,
		3.1824469566345217]
	},
	{
		"bufferView":1,
		"type":"VEC3",
		"componentType":5126,
		"count":1558,
		"byteOffset":12,
		"min":[-0.9317352771759033,
		-0.9988229870796204,
		-0.9101340174674988],
		"max":[0.9029403924942017,
		1.0,
		0.9344145059585571]
	}],
	"bufferViews":[{
		"buffer":0,
		"byteOffset":0,
		"byteLength":3888,
		"target":34963
	},
	{
		"buffer":0,
		"byteOffset":3888,
		"byteLength":37392,
		"target":34962,
		"byteStride":24
	}],
	"buffers":[{
		"uri":"data:application/octet-stream;base64,",
		"byteLength":41280
	}],
	"materials":[{
		"pbrMetallicRoughness":{
			"baseColorFactor":[1.0,
			1.0,
			1.0,
			1.0],
			"metallicFactor":1.0,
			"roughnessFactor":1.0
		},
		"emissiveFactor":[0.0,
		0.0,
		0.0],
		"alphaMode":"OPAQUE",
		"doubleSided":false,
		"name":"Default"
	}]
}