{
	"asset":{
		"version":"2.0",
		"generator":"Created using the official Cinema 4D glTF Exporter 1.000x290161"
	},
	"scenes":[{
		"nodes":[0]
	}],
	"nodes":[{
		"name":"Pyramids",
		"mesh":0
	}],
	"meshes":[{
		"primitives":[{
			"attributes":{
				"POSITION":1,
				"NORMAL":2
			},
			"indices":0,
			"material":0
		}]
	}],
	"accessors":[{
		"bufferView":0,
		"type":"SCALAR",
		"componentType":5123,
		"count":2592,
		"byteOffset":0,
		"min":[0],
		"max":[1187]
	},
	{
		"bufferView":1,
		"type":"VEC3",
		"componentType":5126,
		"count":1188,
		"byteOffset":0,
		"min":[-1.9881118535995484,
		-2.1847918033599855,
		-1.9881118535995484],
		"max":[1.9881118535995484,
		4.4422478675842289,
		1.9881118535995484]
	},
	{
		"bufferView":1,
		"type":"VEC3",
		"componentType":5126,
		"count":1188,
		"byteOffset":12,
		"min":[-0.986393928527832,
		-1.0,
		-0.986393928527832],
		"max":[0.986393928527832,
		0.16439902782440186,
		0.986393928527832]
	}],
	"bufferViews":[{
		"buffer":0,
		"byteOffset":0,
		"byteLength":5184,
		"target":34963
	},
	{
		"buffer":0,
		"byteOffset":5184,
		"byteLength":28512,
		"target":34962,
		"byteStride":24
	}],
	"buffers":[{
		"uri":"data:application/octet-stream;base64,",
		"byteLength":33696
	}],
	"materials":[{
		"pbrMetallicRoughness":{
			"baseColorFactor":[1.0,
			1.0,
			1.0,
			1.0],
			"metallicFactor":1.0,
			"roughnessFactor":1.0
		},
		"emissiveFactor":[0.0,
		0.0,
		0.0],
		"alphaMode":"OPAQUE",
		"doubleSided":false,
		"name":"Default"
	}]
}