{
	"asset":{
		"version":"2.0",
		"generator":"Created using the official Cinema 4D glTF Exporter 1.000x290161"
	},
	"scenes":[{
		"nodes":[0]
	}],
	"nodes":[{
		"name":"Rock",
		"translation":[-0.05038006976246834,
		0.5816677212715149,
		-0.0953468382358551],
		"rotation":[0.0,
		0.0,
		0.0,
		-1.0],
		"scale":[1.0,
		1.0,
		1.0],
		"mesh":0
	}],
	"meshes":[{
		"primitives":[{
			"attributes":{
				"POSITION":1,
				"NORMAL":2
			},
			"indices":0,
			"material":0
		}]
	}],
	"accessors":[{
		"bufferView":0,
		"type":"SCALAR",
		"componentType":5123,
		"count":16011,
		"byteOffset":0,
		"min":[0],
		"max":[5379]
	},
	{
		"bufferView":1,
		"type":"VEC3",
		"componentType":5126,
		"count":5380,
		"byteOffset":0,
		"min":[-3.000528335571289,
		-3.589874505996704,
		-7.5109333992004398],
		"max":[3.000528335571289,
		3.589874505996704,
		7.5109333992004398]
	},
	{
		"bufferView":1,
		"type":"VEC3",
		"componentType":5126,
		"count":5380,
		"byteOffset":12,
		"min":[-0.9624468088150024,
		-0.9959540367126465,
		-0.9916901588439941],
		"max":[0.9998164772987366,
		0.9999901652336121,
		0.9987117052078247]
	}],
	"bufferViews":[{
		"buffer":0,
		"byteOffset":0,
		"byteLength":32022,
		"target":34963
	},
	{
		"buffer":0,
		"byteOffset":32024,
		"byteLength":129120,
		"target":34962,
		"byteStride":24
	}],
	"buffers":[{
		"uri":"data:application/octet-stream;base64,",
		"byteLength":161144
	}],
	"materials":[{
		"name":"Default",
		"pbrMetallicRoughness":{
			"baseColorFactor":[1.0,
			1.0,
			1.0,
			1.0],
			"metallicFactor":1.0,
			"roughnessFactor":1.0
		},
		"emissiveFactor":[0.0,
		0.0,
		0.0],
		"alphaMode":"OPAQUE",
		"doubleSided":false
	}]
}