{
	"asset":{
		"version":"2.0",
		"generator":"Created using the official Cinema 4D glTF Exporter 1.000x290161"
	},
	"scenes":[{
		"nodes":[0]
	}],
	"nodes":[{
		"name":"moss rock 10",
		"mesh":0
	}],
	"meshes":[{
		"primitives":[{
			"attributes":{
				"POSITION":1,
				"NORMAL":2
			},
			"indices":0,
			"material":0
		}]
	}],
	"accessors":[{
		"bufferView":0,
		"type":"SCALAR",
		"componentType":5123,
		"count":23682,
		"byteOffset":0,
		"min":[0],
		"max":[4481]
	},
	{
		"bufferView":1,
		"type":"VEC3",
		"componentType":5126,
		"count":4482,
		"byteOffset":0,
		"min":[-0.9894644618034363,
		-1.551926612854004,
		-1.0673109292984009],
		"max":[0.8457944989204407,
		1.6507017612457276,
		0.07067800313234329]
	},
	{
		"bufferView":1,
		"type":"VEC3",
		"componentType":5126,
		"count":4482,
		"byteOffset":12,
		"min":[-0.9993102550506592,
		-0.9701609015464783,
		-0.99961918592453],
		"max":[0.9994807839393616,
		0.9946626424789429,
		0.9999924898147583]
	}],
	"bufferViews":[{
		"buffer":0,
		"byteOffset":0,
		"byteLength":47364,
		"target":34963
	},
	{
		"buffer":0,
		"byteOffset":47364,
		"byteLength":107568,
		"target":34962,
		"byteStride":24
	}],
	"buffers":[{
		"uri":"data:application/octet-stream;base64,",
		"byteLength":154932
	}],
	"materials":[{
		"pbrMetallicRoughness":{
			"baseColorFactor":[1.0,
			1.0,
			1.0,
			1.0],
			"metallicFactor":1.0,
			"roughnessFactor":1.0
		},
		"emissiveFactor":[0.0,
		0.0,
		0.0],
		"alphaMode":"OPAQUE",
		"doubleSided":false,
		"name":"Default"
	}]
}