{
    "asset": {
        "version": "2.0",
        "generator": "Created using the official Cinema 4D glTF Exporter 1.000x290161"
    },
    "scenes": [
        {
            "nodes": [0]
        }
    ],
    "nodes": [
        {
            "name": "Sweep.1",
            "translation": [
                -33.85426330566406,
                273.9366760253906,
                -16.039960861206056
            ],
            "rotation": [0.0, 0.0, 0.0, -1.0],
            "scale": [1.0, 1.0, 1.0],
            "mesh": 0
        }
    ],
    "meshes": [
        {
            "primitives": [
                {
                    "attributes": {
                        "POSITION": 1,
                        "NORMAL": 2,
                        "TEXCOORD_0": 3
                    },
                    "indices": 0,
                    "material": 0
                }
            ]
        }
    ],
    "accessors": [
        {
            "bufferView": 0,
            "type": "SCALAR",
            "componentType": 5123,
            "count": 274470,
            "byteOffset": 0,
            "min": [0],
            "max": [51538]
        },
        {
            "bufferView": 1,
            "type": "VEC3",
            "componentType": 5126,
            "count": 51539,
            "byteOffset": 0,
            "min": [-209.46240234375, -273.9366760253906, -209.7489776611328],
            "max": [209.46240234375, 273.9366760253906, 209.7489776611328]
        },
        {
            "bufferView": 1,
            "type": "VEC3",
            "componentType": 5126,
            "count": 51539,
            "byteOffset": 12,
            "min": [
                -0.999642550945282,
                -0.9999959468841553,
                -0.999991774559021
            ],
            "max": [0.9997237324714661, 0.9999958276748657, 0.9999919533729553]
        },
        {
            "bufferView": 1,
            "type": "VEC2",
            "componentType": 5126,
            "count": 51539,
            "byteOffset": 24,
            "min": [0.0, 0.0],
            "max": [1.0, 1.0]
        }
    ],
    "bufferViews": [
        {
            "buffer": 0,
            "byteOffset": 0,
            "byteLength": 548940,
            "target": 34963
        },
        {
            "buffer": 0,
            "byteOffset": 548940,
            "byteLength": 1649248,
            "target": 34962,
            "byteStride": 32
        }
    ],
    "buffers": [
        {
            "uri": "data:application/octet-stream;base64,",
            "byteLength": 2198188
        }
    ],
    "materials": [
        {
            "pbrMetallicRoughness": {
                "baseColorFactor": [1.0, 1.0, 1.0, 1.0],
                "metallicFactor": 1.0,
                "roughnessFactor": 1.0
            },
            "emissiveFactor": [0.0, 0.0, 0.0],
            "alphaMode": "OPAQUE",
            "doubleSided": false,
            "name": ""
        }
    ]
}
